Coordinates
version=1
nRows=13
nColumns=38
inDegrees=no

Units are S.I. units (second, meters, Newtons, ...)
If the header above contains a line with 'inDegrees', this indicates whether rotational values are in degrees (yes) or radians (no).

endheader
time	pelvis_tilt	pelvis_list	pelvis_rotation	pelvis_tx	pelvis_ty	pelvis_tz	hip_flexion_r	hip_adduction_r	hip_rotation_r	knee_angle_r	ankle_angle_r	subtalar_angle_r	mtp_angle_r	hip_flexion_l	hip_adduction_l	hip_rotation_l	knee_angle_l	ankle_angle_l	subtalar_angle_l	mtp_angle_l	lumbar_extension	lumbar_bending	lumbar_rotation	arm_flex_r	arm_add_r	arm_rot_r	elbow_flex_r	pro_sup_r	wrist_flex_r	wrist_dev_r	arm_flex_l	arm_add_l	arm_rot_l	elbow_flex_l	pro_sup_l	wrist_flex_l	wrist_dev_l
1.82	-0.0902517	-0.0369079	-0.128577	0.89362	0.983595	-0.319086	-0.277017	0.00371718	-0.0753945	-0.894246	-0.471308	-0.0349027	0.000146859	0.622527	-0.0338714	-0.0805668	-0.252632	0.0772273	-0.0763542	0.000193719	-0.196615	-0.0460799	0.241352	-0.253244	-0.621321	-0.0835695	2.27201	1.53565	0.0946032	0.0292018	-0.766509	-0.247376	-0.274263	2.11168	2.09607	0.0811501	-0.0356415
1.83	-0.0783274	-0.0446617	-0.126003	0.894323	0.979921	-0.319491	-0.254659	0.00705581	-0.0599528	-1.0238	-0.446176	-0.0349027	0.000146859	0.588172	-0.0377159	-0.0883104	-0.245178	0.0672972	-0.0763542	0.000193719	-0.210169	-0.0392404	0.227237	-0.28493	-0.616542	-0.0870148	2.25708	1.54516	0.0946032	0.0292018	-0.753131	-0.252488	-0.277144	2.11765	2.09809	0.0811501	-0.0356415
1.84	-0.0658352	-0.0473892	-0.120576	0.894634	0.975189	-0.320382	-0.22852	0.0040287	-0.0527627	-1.15741	-0.424599	-0.0349027	0.000146859	0.561367	-0.035672	-0.0967388	-0.264369	0.0559704	-0.0763542	0.000193719	-0.224621	-0.0367639	0.207907	-0.317693	-0.609419	-0.090148	2.23594	1.5583	0.0946032	0.0292018	-0.736875	-0.261976	-0.278313	2.12098	2.0988	0.0811501	-0.0356415
1.85	-0.0534614	-0.0449306	-0.112295	0.894449	0.96945	-0.32173	-0.198202	-0.00532247	-0.0534735	-1.29265	-0.406528	-0.0349027	0.000146859	0.542705	-0.0272657	-0.104116	-0.307891	0.0458367	-0.0763542	0.000193719	-0.239483	-0.0386436	0.18361	-0.350886	-0.599753	-0.0932801	2.20791	1.57565	0.0946032	0.0292018	-0.717163	-0.275889	-0.2774	2.12082	2.09892	0.0811501	-0.0356415
1.86	-0.0417011	-0.0375845	-0.101469	0.893708	0.962956	-0.32345	-0.163191	-0.0199775	-0.0602506	-1.4273	-0.391032	-0.0349027	0.000146859	0.53154	-0.0126072	-0.108895	-0.371613	0.0403029	-0.0763542	0.000193719	-0.25452	-0.0445335	0.155015	-0.383796	-0.587391	-0.0966148	2.17231	1.59712	0.0946032	0.0292018	-0.693216	-0.294052	-0.273961	2.11634	2.09934	0.0811501	-0.0356415
1.87	-0.0308415	-0.0261094	-0.0886942	0.892395	0.956214	-0.325389	-0.12294	-0.0380184	-0.0702982	-1.55924	-0.376805	-0.0349027	0.000146859	0.526012	0.00755997	-0.109982	-0.449925	0.0430513	-0.0763542	0.000193719	-0.269683	-0.0537496	0.123199	-0.415764	-0.57228	-0.100215	2.12864	1.62167	0.0946032	0.0292018	-0.664186	-0.316077	-0.267523	2.10694	2.10092	0.0811501	-0.0356415
1.88	-0.0210456	-0.0116927	-0.0748012	0.890495	0.949777	-0.327319	-0.0769433	-0.0569009	-0.0805321	-1.68638	-0.362538	-0.0349027	0.000146859	0.523298	0.0318604	-0.106913	-0.536219	0.0571502	-0.0763542	0.000193719	-0.284982	-0.0652862	0.0896117	-0.446321	-0.554526	-0.103996	2.07686	1.64727	0.0946032	0.0292018	-0.629325	-0.341354	-0.25765	2.09237	2.10425	0.0811501	-0.0356415
1.89	-0.0124072	0.00413612	-0.0607715	0.888015	0.943938	-0.329035	-0.0247986	-0.0738618	-0.0882434	-1.80661	-0.347134	-0.0349027	0.000146859	0.520092	0.0583621	-0.0998766	-0.623553	0.0842007	-0.0763542	0.000193719	-0.300315	-0.0778536	0.0559565	-0.475275	-0.534452	-0.107733	2.01763	1.67103	0.0946032	0.0292018	-0.588182	-0.369062	-0.244033	2.07295	2.10945	0.0811501	-0.0356415
1.9	-0.00503452	0.019644	-0.0476143	0.885027	0.938727	-0.33046	0.0337209	-0.0863795	-0.0916251	-1.91775	-0.329785	-0.0349027	0.000146859	0.513224	0.0847465	-0.0895736	-0.705489	0.123922	-0.0763542	0.000193719	-0.315356	-0.0899575	0.0239892	-0.502749	-0.512634	-0.111098	1.95242	1.68965	0.0946032	0.0292018	-0.540776	-0.398175	-0.226603	2.04969	2.1161	0.0811501	-0.0356415
1.91	0.000928468	0.0331169	-0.0361898	0.881676	0.934135	-0.331557	0.0985871	-0.0925998	-0.0900886	-2.01766	-0.310004	-0.0349027	0.000146859	0.500218	0.108573	-0.0769545	-0.776843	0.174278	-0.0763542	0.000193719	-0.32951	-0.100006	-0.0047634	-0.529145	-0.489877	-0.113734	1.88356	1.70016	0.0946032	0.0292018	-0.487711	-0.427517	-0.205625	2.02425	2.12334	0.0811501	-0.0356415
1.92	0.00530332	0.0429783	-0.0270087	0.878152	0.930235	-0.332256	0.169422	-0.0916688	-0.0843154	-2.10431	-0.287638	-0.0349027	0.000146859	0.479579	0.127653	-0.062938	-0.834086	0.231949	-0.0763542	0.000193719	-0.341999	-0.106531	-0.0293106	-0.555066	-0.467128	-0.115362	1.81411	1.70061	0.0946032	0.0292018	-0.430184	-0.455853	-0.181743	1.99885	2.13016	0.0811501	-0.0356415
1.93	0.00793918	0.0480718	-0.0200787	0.874657	0.927117	-0.332539	0.245425	-0.0838627	-0.0760608	-2.17592	-0.262883	-0.0349027	0.000146859	0.450772	0.140349	-0.0481861	-0.875309	0.29288	-0.0763542	0.000193719	-0.352016	-0.108346	-0.0494113	-0.581205	-0.445325	-0.115879	1.74749	1.69051	0.0946032	0.0292018	-0.36989	-0.482024	-0.155941	1.97601	2.13555	0.0811501	-0.0356415
1.94	0.00872896	0.0478426	-0.0148797	0.871391	0.924826	-0.332545	0.325361	-0.0705124	-0.0677527	-2.2311	-0.236241	-0.0349027	0.000146859	0.413999	0.145766	-0.0330272	-0.89989	0.352706	-0.0763542	0.000193719	-0.358908	-0.104693	-0.0656065	-0.608244	-0.425237	-0.115436	1.68709	1.67102	0.0946032	0.0292018	-0.308818	-0.505094	-0.129405	1.95817	2.1387	0.0811501	-0.0356415
